<svg width="24" height="24" viewBox="0 0 24 24" fill="none" xmlns="http://www.w3.org/2000/svg">
<path d="M12 1C18.0751 1 23 5.92487 23 12C23 18.0751 18.0751 23 12 23C5.92487 23 1 18.0751 1 12C1 5.92487 5.92487 1 12 1ZM12 3C7.02944 3 3 7.02944 3 12C3 16.9706 7.02944 21 12 21C16.9706 21 21 16.9706 21 12C21 7.02944 16.9706 3 12 3ZM12 18C10.4087 18 8.88303 17.3674 7.75781 16.2422C6.63259 15.117 6 13.5913 6 12C6 10.4087 6.63259 8.88303 7.75781 7.75781C8.88303 6.63259 10.4087 6 12 6V18Z" fill="#FBFBFB"/>
</svg>
